<svg width="268" height="268" viewBox="0 0 268 268" fill="none" xmlns="http://www.w3.org/2000/svg">
<circle cx="134" cy="134" r="134" fill="white"/>
<path d="M93.125 222L67.375 196.25V164.75H102.75V179L110.375 186.625H158.375L166 179V159.75L158.375 152.125H93.875L68.125 126.375V72.75L93.875 47H173.25L199 72.75V104.25H163.625V90L156 82.375H111.125L103.375 90V109.125L111.125 116.75H175.625L201.375 142.5V196.25L175.625 222H93.125ZM97.625 212.375H170.5L191.375 191.5V146L171.75 126.25H106.625L93.875 113.625V85.25L106.5 72.75H161.125L173.25 84.625V95.375H189.25V76.875L169 56.625H98.625L77.75 77.5V121.25L98.875 142.5H163.875L175.25 153.5V183.75L162.625 196.375H105.5L93.5 184.375V173.625H77.375V192.125L97.625 212.375Z" fill="#0036E8"/>
</svg>
