<svg xmlns="http://www.w3.org/2000/svg" xmlns:xlink="http://www.w3.org/1999/xlink" viewBox="0 0 407.72 106.79"><defs><style>.cls-1{fill:url(#linear-gradient);}.cls-2{fill:url(#linear-gradient-2);}.cls-3{fill:url(#linear-gradient-3);}.cls-4{fill:url(#linear-gradient-4);}.cls-5{fill:url(#linear-gradient-5);}.cls-6{fill:url(#linear-gradient-6);}.cls-7{fill:url(#linear-gradient-7);}.cls-8{fill:url(#linear-gradient-8);}.cls-9{fill:url(#linear-gradient-9);}.cls-10{fill:url(#linear-gradient-10);}.cls-11{fill:url(#linear-gradient-11);}.cls-12{fill:url(#linear-gradient-12);}.cls-13{fill:#036fef;}.cls-14{fill:aqua;}</style><linearGradient id="linear-gradient" x1="57.24" y1="58.41" x2="53.51" y2="74.6" gradientTransform="translate(0.12 5.47) rotate(-1.77)" gradientUnits="userSpaceOnUse"><stop offset="0" stop-color="#00eef4"/><stop offset="1" stop-color="#5c35d8"/></linearGradient><linearGradient id="linear-gradient-2" x1="41.69" y1="43.95" x2="38.19" y2="59.12" gradientTransform="translate(0.71 16.44) rotate(-5.23)" gradientUnits="userSpaceOnUse"><stop offset="0" stop-color="#00ddf4"/><stop offset="1" stop-color="#354cd8"/></linearGradient><linearGradient id="linear-gradient-3" x1="74.4" y1="83.28" x2="71.12" y2="97.52" gradientTransform="matrix(0.99, 0.12, -0.12, 0.99, 1.89, -22.77)" gradientUnits="userSpaceOnUse"><stop offset="0" stop-color="#00e9f4"/><stop offset="1" stop-color="#5435d8"/></linearGradient><linearGradient id="linear-gradient-4" x1="31.84" y1="74.37" x2="74.16" y2="91.56" gradientUnits="userSpaceOnUse"><stop offset="0" stop-color="#4c35d8"/><stop offset="1" stop-color="#00f4e8"/></linearGradient><linearGradient id="linear-gradient-5" x1="5.64" y1="67.33" x2="59.72" y2="67.33" gradientUnits="userSpaceOnUse"><stop offset="0" stop-color="#4823e2"/><stop offset="1" stop-color="#00ddf4"/></linearGradient><linearGradient id="linear-gradient-6" x1="305.07" y1="-62.95" x2="301.34" y2="-46.76" gradientTransform="translate(350.94 -27.64) rotate(178.23)" gradientUnits="userSpaceOnUse"><stop offset="0" stop-color="#00f2fe"/><stop offset="1" stop-color="#534ddb"/></linearGradient><linearGradient id="linear-gradient-7" x1="296.38" y1="-62.24" x2="292.89" y2="-47.07" gradientTransform="translate(350.36 -38.6) rotate(174.77)" xlink:href="#linear-gradient-6"/><linearGradient id="linear-gradient-8" x1="300.43" y1="-75.01" x2="297.15" y2="-60.77" gradientTransform="matrix(-0.99, -0.12, 0.12, -0.99, 349.17, 0.61)" xlink:href="#linear-gradient-6"/><linearGradient id="linear-gradient-9" x1="275.55" y1="-53.99" x2="317.87" y2="-36.79" gradientTransform="translate(351.07 -22.16) rotate(180)" gradientUnits="userSpaceOnUse"><stop offset="0" stop-color="#534ddb"/><stop offset="1" stop-color="#00f2fe"/></linearGradient><linearGradient id="linear-gradient-10" x1="249.6" y1="-62.21" x2="303.68" y2="-62.21" xlink:href="#linear-gradient-9"/><linearGradient id="linear-gradient-11" x1="17.69" y1="4.95" x2="46.54" y2="107.8" gradientUnits="userSpaceOnUse"><stop offset="0" stop-color="#00c6f4"/><stop offset="1" stop-color="#3550d8"/></linearGradient><linearGradient id="linear-gradient-12" x1="59.84" y1="-3.57" x2="88.7" y2="99.29" gradientTransform="matrix(1, 0, 0, 1, 0, 0)" xlink:href="#linear-gradient-6"/></defs><g id="Layer_2" data-name="Layer 2"><g id="OBJECTS"><path class="cls-1" d="M58,81.68s6.12-.09,11.51-12.46c1.6-3.67,2.08-7.11-.23-7.45C64.62,61.07,64,78.72,49,74.85c-10.58,1.07-1.07,4.21-.32,4.41s5.75,4.09,5.75,4.09Z"/><path class="cls-2" d="M46.47,74.67s6.1-.46,10.74-13.13c1.38-3.76,1.19-5.75-1.14-6-4.68-.41-3.78,15.78-19,12.81-10.49,1.71-.81,4.27-.05,4.43s6,3.73,6,3.73Z"/><path class="cls-3" d="M64.69,82.18s4.08,1.38,8.8-4.5c2.5-3.11,3.15-6.7.92-7.39C69.93,68.88,65.5,81,54.89,80.46s-4.22,3.61-3.51,3.92,8.81,1,8.81,1Z"/><path class="cls-4" d="M49.33,74.93s1.34,4.29,8.68,6.51,13.16-4.22,17.41-2.93-.33,8.46-10,10.92S43,88.09,35.05,81.9c-6.91-5.4-15.17-6.27-13.67,1-4.51,1.29-6-6-6-6.38V71.57l6.49-3.46,9.28,1.45,11.75,3.88Z"/><path class="cls-5" d="M49.33,74.93a2.22,2.22,0,0,1,1.36-.57c2.14-.34,7.14-.86,8.5-2.47,1-1.21.87-3.32-3.09-4.32s-10.22-.23-12.67-1.5c-1.83-1-6.42-4-10.51-6.09A15.32,15.32,0,0,0,21.08,57.8C12.59,58.91,10,56.13,10,51.79l-4.31,8L8.43,71.2s5.74,3.38,6.77,6.06c2.05-.15,4.61,5.26,6.18,5.62C18.81,76,23,71.13,32.14,73.44,46.56,77.1,49.33,74.93,49.33,74.93Z"/><path class="cls-6" d="M49.13,25.11s-6.12.1-11.52,12.47c-1.6,3.66-2.08,7.1.23,7.45,4.65.69,5.28-17,20.26-13.08,10.57-1.08,1.07-4.22.31-4.42s-5.74-4.09-5.74-4.09Z"/><path class="cls-7" d="M60.64,32.12s-6.1.46-10.74,13.14C48.52,49,48.71,51,51,51.21c4.68.42,3.79-15.77,19-12.81,10.48-1.71.81-4.27,0-4.42s-6-3.74-6-3.74Z"/><path class="cls-8" d="M42.41,24.62s-4.07-1.38-8.79,4.49c-2.51,3.12-3.15,6.7-.93,7.4,4.49,1.4,8.92-10.75,19.53-10.18s4.22-3.6,3.51-3.92-8.82-1-8.82-1Z"/><path class="cls-9" d="M57.78,31.87s-1.35-4.3-8.69-6.51-13.16,4.21-17.41,2.93.34-8.47,10-10.93,22.45,1.35,30.35,7.53c6.9,5.41,15.17,6.27,13.66-1s6,6,6,6.38v4.92l-6.48,3.47L76,37.23,64.23,33.35Z"/><path class="cls-10" d="M57.78,31.87a2.31,2.31,0,0,1-1.37.57c-2.13.34-7.14.85-8.49,2.46-1,1.21-.87,3.32,3.09,4.32s10.22.23,12.67,1.51c1.83,1,6.41,4,10.5,6.08A15.34,15.34,0,0,0,86,49c8.49-1.11,11.66,1.77,11.13,6,.88,5.08,4.31-8,4.31-8L98.67,35.6s-5.73-3.39-6.76-6.06c-2,.14-4.62-5.27-6.19-5.62C88.3,30.82,84.1,35.67,75,33.35,60.54,29.69,57.78,31.87,57.78,31.87Z"/><path class="cls-11" d="M49.66,106.79a12.07,12.07,0,0,0-8.58-11.58,43.64,43.64,0,0,1,0-83.63A12.06,12.06,0,0,0,49.66,0h0a53.54,53.54,0,0,0,0,106.79Z"/><path class="cls-12" d="M57.45,0h0A12.06,12.06,0,0,0,66,11.58a43.63,43.63,0,0,1,0,83.63,12.07,12.07,0,0,0-8.57,11.58h0A53.54,53.54,0,0,0,57.45,0Z"/></g><g id="Text"><path d="M148.22,55.84a10.3,10.3,0,0,1,3.72.76,18.65,18.65,0,0,1,3.72,2h-.07A8,8,0,0,1,158.34,62a11.7,11.7,0,0,1,1,4.89V76.3q0,5.58-3.72,8.33a15.75,15.75,0,0,1-3.68,2,10.43,10.43,0,0,1-3.69.73h-15a10.35,10.35,0,0,1-3.69-.73,15.75,15.75,0,0,1-3.68-2q-3.72-2.75-3.72-8.33V71.75q0-3.24,4.06-3.24c2.76,0,4.13,1.08,4.13,3.24v4a5.41,5.41,0,0,0,1,3.23,4.09,4.09,0,0,0,3.58,1.45H146.5A4.09,4.09,0,0,0,150.08,79a5.4,5.4,0,0,0,1-3.23V67.41a5.49,5.49,0,0,0-1-3.2,4.05,4.05,0,0,0-3.58-1.48H133.21a13,13,0,0,1-7.37-2.62q-3.72-2.89-3.72-8.33v-8.2a11.57,11.57,0,0,1,1-4.85,8.57,8.57,0,0,1,2.76-3.41h-.07a20.54,20.54,0,0,1,3.72-1.93,10.22,10.22,0,0,1,3.72-.76h15a10.3,10.3,0,0,1,3.72.76,21.22,21.22,0,0,1,3.72,1.93h-.07a8.55,8.55,0,0,1,2.75,3.41,11.41,11.41,0,0,1,1,4.85v4.07c0,2.16-1.38,3.23-4.13,3.23s-4.07-1.07-4.07-3.23V44.2a5.36,5.36,0,0,0-1-3.17,4.11,4.11,0,0,0-3.58-1.44H134.93A4.11,4.11,0,0,0,131.35,41a5.37,5.37,0,0,0-1,3.17v7a5.28,5.28,0,0,0,1,3.2,4.15,4.15,0,0,0,3.58,1.41Z"/><path d="M199.25,33.46a3,3,0,0,1,2.34-1.24,4.62,4.62,0,0,1,3,1.31A10.6,10.6,0,0,1,205.83,35a2.73,2.73,0,0,1,.52,1.52,2.88,2.88,0,0,1-.9,2.13l-9.23,10.75-18,21.14V84.42q0,3.31-4.14,3.31c-2.7,0-4.06-1.1-4.06-3.31V35.59c0-2.2,1.36-3.3,4.06-3.3s4.14,1.1,4.14,3.3V58.12Zm-9.78,32.71a3.9,3.9,0,0,1-.69-2.34,3.86,3.86,0,0,1,1.73-3.3h-.07a4.7,4.7,0,0,1,2.75-1,2.6,2.6,0,0,1,2.21,1.52L208.69,80.5l-.07-.07a3.77,3.77,0,0,1,.62,2.07,4,4,0,0,1-1.79,3.16h.07a8.15,8.15,0,0,1-1.45.76,3.27,3.27,0,0,1-1.24.28,2,2,0,0,1-1.14-.42,6.68,6.68,0,0,1-1.13-1Z"/><path class="cls-13" d="M223.43,84.42q0,3.31-4.14,3.31t-4.06-3.31V35.59q0-3.3,4.06-3.3t4.14,3.3Z"/><path d="M238.78,87.39c-1.7,0-2.84-.44-3.44-1.31a5,5,0,0,1-.9-2.9V35.59c0-2.2,1.34-3.3,4-3.3s4.13,1.1,4.13,3.3V80.43h23c1.66,0,2.48,1.12,2.48,3.37s-.73,3.59-2.48,3.59Z"/><path d="M278.73,87.39c-1.7,0-2.85-.44-3.45-1.31a5.07,5.07,0,0,1-.89-2.9V35.59q0-3.3,4-3.3t4.14,3.3V80.43h23c1.65,0,2.48,1.12,2.48,3.37s-.74,3.59-2.48,3.59Z"/><path d="M322.8,84.42c0,2.21-1.37,3.31-4.13,3.31s-4.06-1.1-4.06-3.31V35.59q0-3.3,4.06-3.3c2.76,0,4.13,1.1,4.13,3.3Z"/><path d="M342,84.42q0,3.31-4.07,3.31c-2.7,0-4.06-1.1-4.06-3.31V36.76a4.83,4.83,0,0,1,.9-2.85c.59-.85,1.74-1.28,3.44-1.28h23.42q2.48,0,2.61,3.45t-2.61,3.51H342Zm17.63-25.55a5.71,5.71,0,0,1-.45,2.24A5.44,5.44,0,0,1,358,62.94a6.26,6.26,0,0,1-1.82,1.2,5.66,5.66,0,0,1-2.28.45,5.44,5.44,0,0,1-4-1.65,5.83,5.83,0,0,1,0-8.13,5.44,5.44,0,0,1,4-1.65,5.83,5.83,0,0,1,2.28.44A6,6,0,0,1,358,54.84a5.87,5.87,0,0,1,1.24,1.83A5.45,5.45,0,0,1,359.65,58.87Z"/><path d="M391.88,84.56q0,3.31-4.06,3.31t-4.07-3.31V66.24L368.33,36.9a4.29,4.29,0,0,1-.42-1.86c0-1.33.78-2.31,2.34-3h-.06a7.4,7.4,0,0,1,2.41-.55,3,3,0,0,1,2.75,1.79l12.54,23.56q1.37-2.62,3-5.62l3.2-6.09,3.2-6.13q1.59-3,3-5.72A5.14,5.14,0,0,1,401.49,32a2.64,2.64,0,0,1,1.62-.48,6,6,0,0,1,2.27.55h-.07c1.61.69,2.41,1.7,2.41,3a5.07,5.07,0,0,1-.07.86,2.85,2.85,0,0,1-.34.93c-.42.83-.93,1.84-1.55,3s-1.49,2.86-2.62,5l-4.37,8.33-6.89,13.19Z"/><circle class="cls-14" cx="353.91" cy="58.78" r="5.98"/></g></g></svg>