<?xml version="1.0" encoding="utf-8"?>
<!-- Generator: Adobe Illustrator 24.3.0, SVG Export Plug-In . SVG Version: 6.00 Build 0)  -->
<svg version="1.1" id="Layer_1" xmlns="http://www.w3.org/2000/svg" xmlns:xlink="http://www.w3.org/1999/xlink" x="0px" y="0px"
	 viewBox="0 0 407.7 106.8" style="enable-background:new 0 0 407.7 106.8;" xml:space="preserve">
<style type="text/css">
	.st0{fill:url(#SVGID_1_);}
	.st1{fill:url(#SVGID_2_);}
	.st2{fill:url(#SVGID_3_);}
	.st3{fill:url(#SVGID_4_);}
	.st4{fill:url(#SVGID_5_);}
	.st5{fill:url(#SVGID_6_);}
	.st6{fill:url(#SVGID_7_);}
	.st7{fill:url(#SVGID_8_);}
	.st8{fill:url(#SVGID_9_);}
	.st9{fill:url(#SVGID_10_);}
	.st10{fill:url(#SVGID_11_);}
	.st11{fill:url(#SVGID_12_);}
	.st12{fill:#FFFFFF;}
	.st13{fill:#3D6EB4;}
	.st14{fill:#6FCBDC;}
</style>
<g id="Layer_2_1_">
	<g id="OBJECTS">
		
			<linearGradient id="SVGID_1_" gradientUnits="userSpaceOnUse" x1="47.6206" y1="40.253" x2="43.8906" y2="24.063" gradientTransform="matrix(0.9995 -3.088741e-02 -3.088741e-02 -0.9995 12.7609 103.79)">
			<stop  offset="0" style="stop-color:#62C8DA"/>
			<stop  offset="1" style="stop-color:#5B51A1"/>
		</linearGradient>
		<path class="st0" d="M58,81.7c0,0,6.1-0.1,11.5-12.5c1.6-3.7,2.1-7.1-0.2-7.5c-4.7-0.7-5.3,17-20.3,13.1
			c-10.6,1.1-1.1,4.2-0.3,4.4s5.8,4.1,5.8,4.1L58,81.7z"/>
		
			<linearGradient id="SVGID_2_" gradientUnits="userSpaceOnUse" x1="12.472" y1="37.3466" x2="8.972" y2="22.1766" gradientTransform="matrix(0.9958 -9.115401e-02 -9.115401e-02 -0.9958 37.1697 94.7322)">
			<stop  offset="0" style="stop-color:#52C6E0"/>
			<stop  offset="1" style="stop-color:#4759A6"/>
		</linearGradient>
		<path class="st1" d="M46.4,74.7c0,0,6.1-0.5,10.7-13.1c1.4-3.8,1.2-5.8-1.1-6c-4.7-0.4-3.8,15.8-19,12.8c-10.5,1.7-0.8,4.3,0,4.4
			s6,3.7,6,3.7L46.4,74.7z"/>
		
			<linearGradient id="SVGID_3_" gradientUnits="userSpaceOnUse" x1="109.8659" y1="63.1544" x2="106.5859" y2="48.9144" gradientTransform="matrix(0.99 0.12 0.12 -0.99 -50.86 117.93)">
			<stop  offset="0" style="stop-color:#60C8DB"/>
			<stop  offset="1" style="stop-color:#5651A1"/>
		</linearGradient>
		<path class="st2" d="M64.7,82.2c0,0,4.1,1.4,8.8-4.5c2.5-3.1,3.2-6.7,0.9-7.4c-4.5-1.4-8.9,10.7-19.5,10.2s-4.2,3.6-3.5,3.9
			s8.8,1,8.8,1L64.7,82.2z"/>
		
			<linearGradient id="SVGID_4_" gradientUnits="userSpaceOnUse" x1="31.8072" y1="33.6172" x2="74.1272" y2="16.4272" gradientTransform="matrix(1 0 0 -1 0 108)">
			<stop  offset="0" style="stop-color:#5251A1"/>
			<stop  offset="1" style="stop-color:#69C8CD"/>
		</linearGradient>
		<path class="st3" d="M49.3,74.9c0,0,1.3,4.3,8.7,6.5s13.2-4.2,17.4-2.9s-0.3,8.5-10,10.9S43,88.1,35,81.9
			c-6.9-5.4-15.2-6.3-13.7,1c-4.5,1.3-6-6-6-6.4v-5l6.5-3.5l9.3,1.4l11.7,3.9L49.3,74.9z"/>
		
			<linearGradient id="SVGID_5_" gradientUnits="userSpaceOnUse" x1="5.6623" y1="40.665" x2="59.7423" y2="40.665" gradientTransform="matrix(1 0 0 -1 0 108)">
			<stop  offset="0" style="stop-color:#4F4FA0"/>
			<stop  offset="1" style="stop-color:#52C6E0"/>
		</linearGradient>
		<path class="st4" d="M49.3,74.9c0.4-0.3,0.9-0.5,1.4-0.6c2.1-0.3,7.1-0.9,8.5-2.5c1-1.2,0.9-3.3-3.1-4.3s-10.2-0.2-12.7-1.5
			c-1.8-1-6.4-4-10.5-6.1c-3.5-2.3-7.8-3.1-11.8-2.2c-8.5,1.1-11.1-1.7-11.1-6l-4.3,8l2.7,11.4c0,0,5.7,3.4,6.8,6.1
			c2-0.2,4.6,5.3,6.2,5.6C18.8,76,23,71.1,32.1,73.4C46.5,77.1,49.3,74.9,49.3,74.9z"/>
		
			<linearGradient id="SVGID_6_" gradientUnits="userSpaceOnUse" x1="-299.3095" y1="792.2868" x2="-303.0396" y2="776.0968" gradientTransform="matrix(-0.9995 3.088749e-02 3.088749e-02 0.9995 -275.7009 -737.96)">
			<stop  offset="0" style="stop-color:#69CAE0"/>
			<stop  offset="1" style="stop-color:#565AA7"/>
		</linearGradient>
		<path class="st5" d="M49.1,25.1c0,0-6.1,0.1-11.5,12.5c-1.6,3.7-2.1,7.1,0.2,7.5c4.7,0.7,5.3-17,20.3-13.1
			c10.6-1.1,1.1-4.2,0.3-4.4s-5.7-4.1-5.7-4.1L49.1,25.1z"/>
		
			<linearGradient id="SVGID_7_" gradientUnits="userSpaceOnUse" x1="-288.4083" y1="808.9448" x2="-291.8983" y2="793.7748" gradientTransform="matrix(-0.9958 9.115393e-02 9.115393e-02 0.9958 -300.0996 -728.8922)">
			<stop  offset="0" style="stop-color:#69CAE0"/>
			<stop  offset="1" style="stop-color:#565AA7"/>
		</linearGradient>
		<path class="st6" d="M60.6,32.1c0,0-6.1,0.5-10.7,13.1c-1.4,3.7-1.2,5.7,1.1,6c4.7,0.4,3.8-15.8,19-12.8c10.5-1.7,0.8-4.3,0-4.4
			s-6-3.7-6-3.7L60.6,32.1z"/>
		
			<linearGradient id="SVGID_8_" gradientUnits="userSpaceOnUse" x1="-347.8182" y1="756.2952" x2="-351.0982" y2="742.0552" gradientTransform="matrix(-0.99 -0.12 -0.12 0.99 -212.08 -752.09)">
			<stop  offset="0" style="stop-color:#69CAE0"/>
			<stop  offset="1" style="stop-color:#565AA7"/>
		</linearGradient>
		<path class="st7" d="M42.4,24.6c0,0-4.1-1.4-8.8,4.5c-2.5,3.1-3.1,6.7-0.9,7.4c4.5,1.4,8.9-10.8,19.5-10.2s4.2-3.6,3.5-3.9
			s-8.8-1-8.8-1L42.4,24.6z"/>
		
			<linearGradient id="SVGID_9_" gradientUnits="userSpaceOnUse" x1="-338.4269" y1="773.9788" x2="-296.1069" y2="756.7787" gradientTransform="matrix(-1 0 0 1 -262.93 -742.16)">
			<stop  offset="0" style="stop-color:#565AA7"/>
			<stop  offset="1" style="stop-color:#69CAE0"/>
		</linearGradient>
		<path class="st8" d="M57.8,31.9c0,0-1.3-4.3-8.7-6.5s-13.2,4.2-17.4,2.9s0.3-8.5,10-10.9s22.5,1.4,30.3,7.5
			c6.9,5.4,15.2,6.3,13.7-1s6,6,6,6.4v4.9l-6.5,3.5L76,37.2l-11.8-3.9L57.8,31.9z"/>
		
			<linearGradient id="SVGID_10_" gradientUnits="userSpaceOnUse" x1="-364.3423" y1="782.206" x2="-310.2979" y2="782.206" gradientTransform="matrix(-1 0 0 1 -262.93 -742.16)">
			<stop  offset="0" style="stop-color:#565AA7"/>
			<stop  offset="1" style="stop-color:#69CAE0"/>
		</linearGradient>
		<path class="st9" d="M57.8,31.9c-0.4,0.3-0.9,0.5-1.4,0.6c-2.1,0.3-7.1,0.8-8.5,2.5c-1,1.2-0.9,3.3,3.1,4.3s10.2,0.2,12.7,1.5
			c1.8,1,6.4,4,10.5,6.1c3.5,2.3,7.7,3.1,11.8,2.2c8.5-1.1,11.7,1.8,11.1,6c0.9,5.1,4.3-8,4.3-8l-2.8-11.4c0,0-5.7-3.4-6.8-6.1
			c-2,0.1-4.6-5.3-6.2-5.6c2.6,6.9-1.6,11.8-10.7,9.4C60.5,29.7,57.8,31.9,57.8,31.9z"/>
		
			<linearGradient id="SVGID_11_" gradientUnits="userSpaceOnUse" x1="17.692" y1="103.0583" x2="46.542" y2="0.2083" gradientTransform="matrix(1 0 0 -1 0 108)">
			<stop  offset="0" style="stop-color:#1BC2EF"/>
			<stop  offset="1" style="stop-color:#465BA8"/>
		</linearGradient>
		<path class="st10" d="M49.6,106.8c0-5.3-3.5-10-8.6-11.6C18,88.3,4.8,64,11.7,40.9C15.9,26.8,27,15.8,41.1,11.6
			C46.2,10,49.6,5.3,49.6,0l0,0C20.1,2.2-2,27.8,0.2,57.3C2.1,83.8,23.2,104.8,49.6,106.8z"/>
		
			<linearGradient id="SVGID_12_" gradientUnits="userSpaceOnUse" x1="59.775" y1="111.5595" x2="88.635" y2="8.6995" gradientTransform="matrix(1 0 0 -1 0 108)">
			<stop  offset="0" style="stop-color:#69CAE0"/>
			<stop  offset="1" style="stop-color:#565AA7"/>
		</linearGradient>
		<path class="st11" d="M57.4,0L57.4,0c0,5.3,3.5,10,8.5,11.6c23.1,6.9,36.2,31.2,29.4,54.3C91.1,80,80.1,91,66,95.2
			c-5.1,1.5-8.6,6.3-8.6,11.6l0,0c29.5-2.2,51.6-27.8,49.5-57.3C104.9,23,83.9,2,57.4,0z"/>
	</g>
	<g id="Text">
		<path class="st12" d="M148.2,55.8c1.3,0,2.5,0.3,3.7,0.8c1.3,0.5,2.6,1.2,3.7,2h-0.1c1.2,0.9,2.2,2,2.8,3.4c0.7,1.5,1,3.2,1,4.9
			v9.4c0,3.7-1.2,6.5-3.7,8.3c-1.1,0.8-2.4,1.5-3.7,2c-1.2,0.5-2.4,0.7-3.7,0.7h-15c-1.3,0-2.5-0.3-3.7-0.7c-1.3-0.5-2.5-1.2-3.7-2
			c-2.5-1.8-3.7-4.6-3.7-8.3v-4.6c0-2.2,1.4-3.2,4.1-3.2c2.8,0,4.1,1.1,4.1,3.2v4c0,1.2,0.3,2.3,1,3.2c0.9,1.1,2.2,1.6,3.6,1.4h11.6
			c1.4,0.2,2.7-0.4,3.6-1.4c0.7-0.9,1-2.1,1-3.2v-8.4c0-1.1-0.3-2.3-1-3.2c-0.9-1.1-2.2-1.6-3.6-1.5h-13.3c-2.7-0.1-5.2-1-7.4-2.6
			c-2.5-1.9-3.7-4.7-3.7-8.3v-8.2c0-1.7,0.3-3.3,1-4.8c0.6-1.4,1.6-2.5,2.8-3.4h-0.1c1.2-0.8,2.4-1.4,3.7-1.9
			c1.2-0.5,2.4-0.7,3.7-0.8h15c1.3,0,2.5,0.3,3.7,0.8c1.3,0.5,2.5,1.2,3.7,1.9h-0.1c1.2,0.9,2.1,2.1,2.8,3.4c0.7,1.5,1,3.2,1,4.8
			v4.1c0,2.2-1.4,3.2-4.1,3.2s-4.1-1.1-4.1-3.2v-3.5c0-1.1-0.3-2.2-1-3.2c-0.9-1-2.2-1.6-3.6-1.4h-11.7c-1.4-0.2-2.7,0.4-3.6,1.4
			c-0.7,0.9-1,2-1,3.2v7c0,1.1,0.3,2.3,1,3.2c0.9,1,2.2,1.6,3.6,1.4L148.2,55.8z"/>
		<path class="st12" d="M199.2,33.5c0.5-0.8,1.4-1.2,2.3-1.2c1.1,0.1,2.2,0.5,3,1.3c0.5,0.5,0.9,0.9,1.2,1.5c0.3,0.4,0.5,1,0.5,1.5
			c0,0.8-0.3,1.6-0.9,2.1l-9.2,10.8l-18,21.1v13.9c0,2.2-1.4,3.3-4.1,3.3c-2.7,0-4.1-1.1-4.1-3.3V35.6c0-2.2,1.4-3.3,4.1-3.3
			s4.1,1.1,4.1,3.3v22.5L199.2,33.5z M189.4,66.2c-0.5-0.7-0.7-1.5-0.7-2.3c0-1.3,0.6-2.6,1.7-3.3h-0.1c0.8-0.6,1.8-1,2.8-1
			c1,0.1,1.8,0.6,2.2,1.5l13.3,19.5l-0.1-0.1c0.4,0.6,0.6,1.3,0.6,2.1c-0.1,1.3-0.7,2.5-1.8,3.2h0.1c-0.5,0.3-0.9,0.6-1.4,0.8
			c-0.4,0.2-0.8,0.3-1.2,0.3c-0.4,0-0.8-0.2-1.1-0.4c-0.4-0.3-0.8-0.6-1.1-1L189.4,66.2z"/>
		<path class="st13" d="M223.4,84.4c0,2.2-1.4,3.3-4.1,3.3c-2.8,0-4.1-1.1-4.1-3.3V35.6c0-2.2,1.4-3.3,4.1-3.3s4.1,1.1,4.1,3.3V84.4
			z"/>
		<path class="st12" d="M238.8,87.4c-1.7,0-2.8-0.4-3.4-1.3c-0.6-0.8-0.9-1.9-0.9-2.9V35.6c0-2.2,1.3-3.3,4-3.3s4.1,1.1,4.1,3.3
			v44.8h23c1.7,0,2.5,1.1,2.5,3.4s-0.7,3.6-2.5,3.6H238.8z"/>
		<path class="st12" d="M278.7,87.4c-1.7,0-2.9-0.4-3.5-1.3c-0.6-0.9-0.9-1.9-0.9-2.9V35.6c0-2.2,1.3-3.3,4-3.3c2.7,0,4,1.1,4.1,3.3
			v44.8h23c1.6,0,2.5,1.1,2.5,3.4s-0.7,3.6-2.5,3.6H278.7z"/>
		<path class="st12" d="M322.8,84.4c0,2.2-1.4,3.3-4.1,3.3s-4.1-1.1-4.1-3.3V35.6c0-2.2,1.4-3.3,4.1-3.3c2.8,0,4.1,1.1,4.1,3.3V84.4
			z"/>
		<path class="st12" d="M342,84.4c0,2.2-1.4,3.3-4.1,3.3c-2.7,0-4.1-1.1-4.1-3.3V36.8c0-1,0.3-2,0.9-2.8c0.6-0.8,1.7-1.3,3.4-1.3
			h23.4c1.7,0,2.5,1.2,2.6,3.5s-0.8,3.5-2.6,3.5H342V84.4z M359.6,58.9c0,0.8-0.2,1.5-0.5,2.2c-0.3,0.7-0.7,1.3-1.2,1.8
			c-0.5,0.5-1.1,0.9-1.8,1.2c-0.7,0.3-1.5,0.5-2.3,0.4c-1.5,0-3-0.6-4-1.7c-2.2-2.3-2.2-5.9,0-8.1c1-1.1,2.5-1.7,4-1.7
			c0.8,0,1.6,0.1,2.3,0.4c0.7,0.3,1.3,0.7,1.8,1.2c0.5,0.5,0.9,1.1,1.2,1.8C359.5,57.4,359.6,58.1,359.6,58.9L359.6,58.9z"/>
		<path class="st12" d="M391.9,84.6c0,2.2-1.4,3.3-4.1,3.3c-2.7,0-4.1-1.1-4.1-3.3V66.2l-15.4-29.3c-0.3-0.6-0.4-1.2-0.4-1.9
			c0-1.3,0.8-2.3,2.3-3h-0.1c0.8-0.3,1.6-0.5,2.4-0.5c1.2,0,2.3,0.7,2.8,1.8l12.5,23.6c0.9-1.7,1.9-3.6,3-5.6l3.2-6.1l3.2-6.1
			c1.1-2,2.1-3.9,3-5.7c0.3-0.5,0.7-0.9,1.2-1.3c0.5-0.3,1-0.5,1.6-0.5c0.8,0,1.6,0.2,2.3,0.5h-0.1c1.6,0.7,2.4,1.7,2.4,3
			c0,0.3,0,0.6-0.1,0.9c-0.1,0.3-0.2,0.6-0.3,0.9c-0.4,0.8-0.9,1.8-1.5,3s-1.5,2.9-2.6,5l-4.4,8.3l-6.9,13.2L391.9,84.6z"/>
		<circle class="st14" cx="353.9" cy="58.8" r="6"/>
	</g>
</g>
</svg>
