<svg width="680" height="105" viewBox="0 0 680 105" fill="none" xmlns="http://www.w3.org/2000/svg">
<path d="M16.075 105L0.625 89.55V70.65H21.85V79.2L26.425 83.775H55.225L59.8 79.2V67.65L55.225 63.075H16.525L1.075 47.625V15.45L16.525 -7.15256e-06H64.15L79.6 15.45V34.35H58.375V25.8L53.8 21.225H26.875L22.225 25.8V37.275L26.875 41.85H65.575L81.025 57.3V89.55L65.575 105H16.075ZM18.775 99.225H62.5L75.025 86.7V59.4L63.25 47.55H24.175L16.525 39.975V22.95L24.1 15.45H56.875L64.15 22.575V29.025H73.75V17.925L61.6 5.77499H19.375L6.85 18.3V44.55L19.525 57.3H58.525L65.35 63.9V82.05L57.775 89.625H23.5L16.3 82.425V75.975H6.625V87.075L18.775 99.225ZM99.0801 105V-7.15256e-06H120.305V41.4H146.48L155.405 32.475V-7.15256e-06H176.63V41.4L166.055 51.9L176.63 62.625V105H155.405V71.475L146.48 62.625H120.305V105H99.0801ZM104.855 99.15H114.53V56.4H149.405L161.255 68.4V99.15H170.855V64.5L158.33 51.6L170.855 39.075V5.625H161.255V35.175L149.555 46.725H114.53V5.625H104.855V99.15ZM195.742 105V83.775H216.292V21.225H195.742V-7.15256e-06H257.917V21.225H237.442V83.775H257.917V105H195.742ZM201.517 99.225H252.217V89.625H231.292V15.3H252.217V5.625H201.517V15.3H221.692V89.625H201.517V99.225ZM275.887 105V-7.15256e-06H297.112V83.775H342.712V105H275.887ZM281.737 99.3H337.012V89.625H291.337V5.625H281.737V99.3ZM357.771 105V-7.15256e-06H378.996V83.775H424.596V105H357.771ZM363.621 99.3H418.896V89.625H373.221V5.625H363.621V99.3ZM438.906 105V83.775H459.456V21.225H438.906V-7.15256e-06H501.081V21.225H480.606V83.775H501.081V105H438.906ZM444.681 99.225H495.381V89.625H474.456V15.3H495.381V5.625H444.681V15.3H464.856V89.625H444.681V99.225ZM518.301 105V-7.15256e-06H585.051V21.225H539.526V41.4H582.201V62.625H539.526V105H518.301ZM524.076 99.375H533.751V56.7H576.426V47.025H533.751V15.3H579.426V5.625H524.076V99.375ZM628.557 105V71.775L598.557 43.125V-7.15256e-06H619.782V35.475L639.882 54.45H638.457L658.632 35.475V-7.15256e-06H679.857V43.125L649.782 71.775V105H628.557ZM634.332 99.375H644.007V69.525L674.082 41.025V5.625H664.407V37.8L639.357 61.425H639.057L613.932 37.8V5.625H604.332V41.025L634.332 69.525V99.375Z" fill="#0036E8"/>
</svg>
